<?xml version="1.0" encoding="UTF-8"?>
<svg xmlns="http://www.w3.org/2000/svg" xmlns:xlink="http://www.w3.org/1999/xlink" width="1920" height="1080" viewBox="0 0 1920 1080">
<defs>
<g>
<g id="glyph-0-0">
<path d="M 0.839844 -5.339844 L 0.511719 -5.027344 C 1 -4.648438 1.378906 -4.292969 1.652344 -3.96875 L 2 -4.308594 C 1.6875 -4.652344 1.300781 -4.992188 0.839844 -5.339844 Z M 4.714844 0.546875 L 6.253906 0.546875 L 6.367188 0.0664062 C 6.195312 0.078125 5.941406 0.0859375 5.613281 0.09375 C 5.285156 0.101562 4.96875 0.105469 4.648438 0.105469 C 4.132812 0.105469 3.707031 0.101562 3.359375 0.09375 C 2.972656 0.078125 2.671875 0.0273438 2.472656 -0.0664062 C 2.285156 -0.152344 2.121094 -0.292969 1.960938 -0.488281 C 1.90625 -0.546875 1.859375 -0.59375 1.808594 -0.632812 L 1.808594 -3.132812 L 0.40625 -3.132812 L 0.40625 -2.695312 L 1.359375 -2.695312 L 1.359375 -0.667969 C 1.085938 -0.546875 0.773438 -0.207031 0.421875 0.351562 L 0.78125 0.679688 C 1.148438 0.0664062 1.40625 -0.238281 1.566406 -0.238281 C 1.648438 -0.238281 1.734375 -0.1875 1.820312 -0.0742188 C 2.027344 0.167969 2.261719 0.332031 2.511719 0.414062 C 2.78125 0.488281 3.125 0.527344 3.546875 0.535156 C 3.96875 0.539062 4.355469 0.546875 4.714844 0.546875 Z M 2.300781 -5.085938 L 2.300781 -4.621094 L 4.152344 -4.621094 C 3.753906 -3.621094 3.046875 -2.765625 2.046875 -2.058594 L 2.347656 -1.667969 C 2.96875 -2.121094 3.488281 -2.640625 3.898438 -3.214844 L 3.898438 -0.265625 L 4.378906 -0.265625 L 4.378906 -4.027344 C 4.472656 -4.21875 4.554688 -4.421875 4.632812 -4.621094 L 6.148438 -4.621094 L 6.148438 -5.085938 Z M 4.941406 -3.839844 L 4.574219 -3.574219 C 5.140625 -2.90625 5.605469 -2.273438 5.96875 -1.671875 L 6.375 -1.953125 C 6.039062 -2.492188 5.558594 -3.121094 4.941406 -3.839844 Z "/>
</g>
<g id="glyph-0-1">
<path d="M 2.332031 -3.046875 L 4.980469 -3.046875 L 4.980469 -2.320312 L 2.332031 -2.320312 Z M 4.980469 -1.898438 L 4.980469 -1.195312 L 2.332031 -1.195312 L 2.332031 -1.898438 Z M 4.980469 -0.773438 L 4.980469 -0.0117188 C 4.980469 0.148438 4.894531 0.226562 4.71875 0.226562 C 4.5 0.226562 4.261719 0.214844 4.007812 0.199219 L 4.125 0.640625 L 4.875 0.640625 C 5.246094 0.625 5.433594 0.460938 5.433594 0.132812 L 5.433594 -3.46875 L 2.339844 -3.46875 C 2.5 -3.714844 2.640625 -3.972656 2.773438 -4.238281 L 6.285156 -4.238281 L 6.285156 -4.707031 L 2.972656 -4.707031 C 3.066406 -4.941406 3.148438 -5.179688 3.226562 -5.425781 L 2.738281 -5.488281 C 2.660156 -5.226562 2.558594 -4.96875 2.445312 -4.707031 L 0.460938 -4.707031 L 0.460938 -4.238281 L 2.226562 -4.238281 C 1.765625 -3.378906 1.121094 -2.621094 0.28125 -1.953125 L 0.59375 -1.546875 C 1.074219 -1.933594 1.507812 -2.367188 1.878906 -2.832031 L 1.878906 0.652344 L 2.332031 0.652344 L 2.332031 -0.773438 Z "/>
</g>
<g id="glyph-0-2">
<path d="M 0.464844 -4.859375 L 0.464844 -4.40625 L 1.59375 -4.40625 L 1.59375 -1.351562 L 0.347656 -1.351562 L 0.347656 -0.90625 L 6.328125 -0.90625 L 6.328125 -1.351562 L 5.074219 -1.351562 L 5.074219 -4.40625 L 6.199219 -4.40625 L 6.199219 -4.859375 L 5.074219 -4.859375 L 5.074219 -5.472656 L 4.585938 -5.472656 L 4.585938 -4.859375 L 2.082031 -4.859375 L 2.082031 -5.472656 L 1.59375 -5.472656 L 1.59375 -4.859375 Z M 2.082031 -1.351562 L 2.082031 -2.113281 L 4.585938 -2.113281 L 4.585938 -1.351562 Z M 2.082031 -2.527344 L 2.082031 -3.265625 L 4.585938 -3.265625 L 4.585938 -2.527344 Z M 2.082031 -3.679688 L 2.082031 -4.40625 L 4.585938 -4.40625 L 4.585938 -3.679688 Z M 2.425781 -0.746094 C 1.894531 -0.367188 1.234375 -0.0351562 0.445312 0.261719 L 0.746094 0.648438 C 1.546875 0.332031 2.21875 -0.0273438 2.765625 -0.441406 Z M 4.1875 -0.726562 L 3.945312 -0.367188 C 4.632812 -0.121094 5.308594 0.21875 5.960938 0.648438 L 6.226562 0.238281 C 5.613281 -0.140625 4.933594 -0.460938 4.1875 -0.726562 Z "/>
</g>
<g id="glyph-0-3">
<path d="M 1.699219 -5.488281 C 1.394531 -4.445312 0.894531 -3.519531 0.214844 -2.707031 L 0.367188 -2.207031 C 0.621094 -2.488281 0.859375 -2.785156 1.074219 -3.09375 L 1.074219 0.679688 L 1.546875 0.679688 L 1.546875 -3.867188 C 1.78125 -4.3125 1.972656 -4.785156 2.132812 -5.285156 Z M 5.445312 0.539062 C 5.761719 0.539062 5.980469 0.464844 6.101562 0.320312 C 6.214844 0.171875 6.292969 -0.253906 6.332031 -0.953125 L 5.878906 -1.105469 C 5.855469 -0.511719 5.808594 -0.167969 5.742188 -0.0664062 C 5.660156 0.0273438 5.539062 0.078125 5.367188 0.078125 L 3.273438 0.078125 C 3.046875 0.078125 2.941406 -0.0273438 2.941406 -0.234375 L 2.941406 -3.011719 L 3.933594 -3.328125 L 3.933594 -0.808594 L 4.414062 -0.808594 L 4.414062 -3.480469 L 5.394531 -3.785156 C 5.386719 -2.832031 5.375 -2.28125 5.347656 -2.132812 C 5.3125 -1.972656 5.226562 -1.894531 5.085938 -1.894531 C 4.980469 -1.894531 4.867188 -1.898438 4.738281 -1.90625 L 4.878906 -1.441406 L 4.988281 -1.441406 C 5.453125 -1.441406 5.714844 -1.59375 5.78125 -1.886719 C 5.839844 -2.1875 5.875 -3.039062 5.875 -4.445312 L 4.414062 -3.980469 L 4.414062 -5.453125 L 3.933594 -5.453125 L 3.933594 -3.828125 L 2.941406 -3.507812 L 2.941406 -4.832031 L 2.460938 -4.832031 L 2.460938 -3.351562 L 1.828125 -3.148438 L 1.828125 -2.660156 L 2.460938 -2.859375 L 2.460938 -0.167969 C 2.460938 0.300781 2.6875 0.539062 3.152344 0.539062 Z "/>
</g>
<g id="glyph-0-4">
<path d="M 3.960938 -1.867188 L 4.746094 -1.867188 L 4.746094 -1.054688 L 3.292969 -1.054688 L 3.292969 -0.621094 L 4.746094 -0.621094 L 4.746094 0.6875 L 5.214844 0.6875 L 5.214844 -0.621094 L 6.347656 -0.621094 L 6.347656 -1.054688 L 5.214844 -1.054688 L 5.214844 -1.867188 L 6.207031 -1.867188 L 6.207031 -2.300781 L 5.214844 -2.300781 L 5.214844 -2.921875 L 4.746094 -2.921875 L 4.746094 -2.300781 L 4.132812 -2.300781 C 4.171875 -2.453125 4.214844 -2.621094 4.253906 -2.800781 L 3.855469 -2.875 C 3.753906 -2.339844 3.558594 -1.921875 3.265625 -1.601562 L 3.546875 -1.261719 C 3.707031 -1.433594 3.839844 -1.632812 3.960938 -1.867188 Z M 4.234375 -4.621094 C 4.1875 -4.398438 4.113281 -4.207031 4.011719 -4.035156 C 3.867188 -3.792969 3.640625 -3.582031 3.339844 -3.40625 L 3.621094 -3.039062 C 3.960938 -3.265625 4.21875 -3.527344 4.394531 -3.808594 C 4.519531 -4.039062 4.621094 -4.3125 4.6875 -4.621094 L 5.667969 -4.621094 C 5.652344 -4.140625 5.625 -3.839844 5.585938 -3.726562 C 5.539062 -3.613281 5.425781 -3.554688 5.242188 -3.546875 C 5.085938 -3.554688 4.894531 -3.566406 4.667969 -3.582031 L 4.78125 -3.179688 C 4.992188 -3.167969 5.179688 -3.152344 5.339844 -3.152344 C 5.625 -3.152344 5.828125 -3.246094 5.945312 -3.421875 C 6.066406 -3.601562 6.128906 -4.140625 6.128906 -5.046875 L 3.347656 -5.046875 L 3.347656 -4.621094 Z M 1.085938 -2.214844 L 1.695312 -2.214844 L 1.695312 -1.339844 L 1.078125 -1.339844 C 1.078125 -1.394531 1.085938 -1.441406 1.085938 -1.492188 Z M 1.058594 -0.933594 L 1.695312 -0.933594 L 1.695312 0.574219 L 2.082031 0.574219 L 2.082031 -0.933594 L 2.699219 -0.933594 L 2.699219 -0.0078125 C 2.699219 0.152344 2.625 0.238281 2.480469 0.238281 C 2.375 0.238281 2.253906 0.226562 2.125 0.214844 L 2.238281 0.613281 L 2.621094 0.613281 C 2.941406 0.613281 3.105469 0.453125 3.105469 0.140625 L 3.105469 -3.859375 L 2.308594 -3.859375 C 2.453125 -4.066406 2.605469 -4.320312 2.753906 -4.613281 L 2.753906 -4.945312 L 1.566406 -4.945312 C 1.621094 -5.082031 1.679688 -5.226562 1.734375 -5.375 L 1.300781 -5.472656 C 1.039062 -4.78125 0.714844 -4.21875 0.3125 -3.792969 L 0.605469 -3.441406 C 0.625 -3.46875 0.648438 -3.488281 0.671875 -3.511719 L 0.671875 -1.464844 C 0.667969 -0.707031 0.535156 -0.0742188 0.28125 0.421875 L 0.605469 0.71875 C 0.847656 0.28125 1 -0.273438 1.058594 -0.933594 Z M 1.820312 -3.859375 L 0.953125 -3.859375 C 1.101562 -4.074219 1.246094 -4.300781 1.378906 -4.554688 L 2.246094 -4.554688 C 2.101562 -4.292969 1.960938 -4.058594 1.820312 -3.859375 Z M 2.699219 -1.339844 L 2.082031 -1.339844 L 2.082031 -2.214844 L 2.699219 -2.214844 Z M 2.699219 -2.613281 L 2.082031 -2.613281 L 2.082031 -3.445312 L 2.699219 -3.445312 Z M 1.695312 -3.445312 L 1.695312 -2.613281 L 1.085938 -2.613281 L 1.085938 -3.445312 Z "/>
</g>
<g id="glyph-0-5">
<path d="M 3.878906 -5.445312 L 3.878906 -4.375 L 2.300781 -4.375 L 2.300781 -3.90625 L 3.878906 -3.90625 L 3.878906 -2.660156 L 1.980469 -2.660156 L 1.980469 -2.195312 L 3.558594 -2.195312 C 3.054688 -1 2.640625 -0.265625 2.328125 0.0078125 C 2.300781 0.0195312 2.265625 0.0390625 2.226562 0.0546875 L 2.339844 0.472656 C 3.519531 0.359375 4.613281 0.207031 5.621094 0.0195312 C 5.714844 0.234375 5.800781 0.453125 5.894531 0.6875 L 6.347656 0.488281 C 6.046875 -0.273438 5.695312 -0.992188 5.292969 -1.660156 L 4.832031 -1.507812 C 5.035156 -1.171875 5.234375 -0.808594 5.425781 -0.40625 C 4.601562 -0.246094 3.78125 -0.121094 2.960938 -0.0351562 C 3.28125 -0.453125 3.652344 -1.171875 4.082031 -2.195312 L 6.265625 -2.195312 L 6.265625 -2.660156 L 4.375 -2.660156 L 4.375 -3.90625 L 6.085938 -3.90625 L 6.085938 -4.375 L 4.375 -4.375 L 4.375 -5.445312 Z M 0.851562 -5.339844 L 0.511719 -5.011719 C 0.980469 -4.660156 1.339844 -4.328125 1.605469 -4.007812 L 1.945312 -4.355469 C 1.652344 -4.6875 1.285156 -5.011719 0.851562 -5.339844 Z M 0.695312 -3.78125 L 0.351562 -3.453125 C 0.78125 -3.09375 1.113281 -2.761719 1.351562 -2.445312 L 1.699219 -2.785156 C 1.425781 -3.121094 1.09375 -3.453125 0.695312 -3.78125 Z M 1.460938 -1.933594 C 1.179688 -1.132812 0.839844 -0.351562 0.453125 0.40625 L 0.933594 0.613281 C 1.285156 -0.125 1.605469 -0.921875 1.894531 -1.761719 Z "/>
</g>
<g id="glyph-0-6">
<path d="M 2.3125 -4.886719 L 0.554688 -4.886719 L 0.554688 0.0351562 L 1.007812 0.0351562 L 1.007812 -0.464844 L 1.867188 -0.464844 L 1.867188 -0.105469 L 2.3125 -0.105469 Z M 1.007812 -0.921875 L 1.007812 -4.445312 L 1.867188 -4.445312 L 1.867188 -0.921875 Z M 3.386719 -4.246094 L 2.992188 -2.066406 L 5.699219 -2.066406 C 5.699219 -1.027344 5.640625 -0.398438 5.519531 -0.179688 C 5.398438 0.0351562 5.054688 0.140625 4.46875 0.140625 C 4.355469 0.140625 4.152344 0.121094 3.859375 0.0859375 L 4.011719 0.578125 C 4.214844 0.59375 4.398438 0.605469 4.585938 0.605469 C 5.242188 0.605469 5.667969 0.480469 5.867188 0.238281 C 6.066406 -0.0078125 6.167969 -0.925781 6.167969 -2.519531 L 5.394531 -2.519531 L 5.8125 -5.160156 L 2.820312 -5.160156 L 2.820312 -4.695312 L 5.265625 -4.695312 L 4.914062 -2.519531 L 3.519531 -2.519531 L 3.859375 -4.21875 Z M 2.601562 -1.238281 L 2.601562 -0.785156 L 5.179688 -0.785156 L 5.179688 -1.238281 Z "/>
</g>
<g id="glyph-0-7">
<path d="M 1.726562 -4.855469 C 1.246094 -4.855469 0.875 -4.707031 0.605469 -4.414062 C 0.339844 -4.132812 0.214844 -3.761719 0.214844 -3.292969 L 0.738281 -3.292969 C 0.738281 -3.621094 0.8125 -3.875 0.960938 -4.058594 C 1.121094 -4.28125 1.367188 -4.386719 1.699219 -4.386719 C 1.980469 -4.386719 2.199219 -4.3125 2.351562 -4.152344 C 2.5 -4.007812 2.582031 -3.800781 2.582031 -3.535156 C 2.582031 -3.347656 2.511719 -3.171875 2.378906 -3.007812 C 2.339844 -2.953125 2.261719 -2.875 2.152344 -2.765625 C 1.792969 -2.445312 1.574219 -2.195312 1.480469 -1.992188 C 1.398438 -1.828125 1.359375 -1.632812 1.359375 -1.414062 L 1.359375 -1.261719 L 1.894531 -1.261719 L 1.894531 -1.414062 C 1.894531 -1.59375 1.933594 -1.753906 2.019531 -1.898438 C 2.085938 -2.019531 2.1875 -2.140625 2.332031 -2.265625 C 2.625 -2.527344 2.808594 -2.699219 2.875 -2.78125 C 3.039062 -3 3.125 -3.261719 3.125 -3.558594 C 3.125 -3.960938 3 -4.273438 2.753906 -4.5 C 2.492188 -4.738281 2.152344 -4.855469 1.726562 -4.855469 Z M 1.625 -0.792969 C 1.511719 -0.792969 1.421875 -0.761719 1.339844 -0.679688 C 1.261719 -0.605469 1.226562 -0.511719 1.226562 -0.398438 C 1.226562 -0.285156 1.261719 -0.191406 1.339844 -0.113281 C 1.421875 -0.0390625 1.511719 0 1.625 0 C 1.738281 0 1.832031 -0.0390625 1.914062 -0.113281 C 1.992188 -0.1875 2.035156 -0.28125 2.035156 -0.398438 C 2.035156 -0.511719 1.992188 -0.605469 1.921875 -0.679688 C 1.839844 -0.761719 1.738281 -0.792969 1.625 -0.792969 Z "/>
</g>
</g>
</defs>
<g fill="rgb(53.333333%, 53.333333%, 53.333333%)" fill-opacity="1">
<use xlink:href="#glyph-0-0" x="30" y="27.067383"/>
<use xlink:href="#glyph-0-1" x="37" y="27.067383"/>
<use xlink:href="#glyph-0-2" x="44" y="27.067383"/>
<use xlink:href="#glyph-0-3" x="51" y="27.067383"/>
<use xlink:href="#glyph-0-4" x="58" y="27.067383"/>
<use xlink:href="#glyph-0-5" x="65" y="27.067383"/>
<use xlink:href="#glyph-0-6" x="72" y="27.067383"/>
<use xlink:href="#glyph-0-7" x="79" y="27.067383"/>
</g>
</svg>
