<?xml version="1.0" encoding="UTF-8"?>
<svg xmlns="http://www.w3.org/2000/svg" xmlns:xlink="http://www.w3.org/1999/xlink" width="1920" height="1080" viewBox="0 0 1920 1080">
<defs>
<g>
<g id="glyph-0-0">
<path d="M 0.867188 -8.917969 L 0.867188 -8 L 4.585938 -8 C 4.574219 -7.546875 4.546875 -6.90625 4.507812 -6.066406 C 4.441406 -4.800781 4.1875 -3.652344 3.734375 -2.625 C 3.265625 -1.601562 2.320312 -0.492188 0.90625 0.707031 L 1.601562 1.375 C 2.773438 0.425781 3.679688 -0.613281 4.332031 -1.761719 C 4.8125 -2.640625 5.148438 -3.613281 5.320312 -4.691406 L 9.988281 -4.691406 C 9.960938 -2.851562 9.917969 -1.640625 9.839844 -1.078125 C 9.679688 -0.148438 9.265625 0.332031 8.585938 0.359375 C 8.121094 0.359375 7.546875 0.347656 6.851562 0.320312 L 7.148438 1.1875 C 7.734375 1.214844 8.253906 1.238281 8.679688 1.238281 C 9.734375 1.199219 10.386719 0.613281 10.652344 -0.519531 C 10.828125 -1.265625 10.933594 -2.960938 10.960938 -5.601562 L 5.425781 -5.601562 L 5.425781 -5.625 L 5.546875 -8 L 12.574219 -8 L 12.574219 -8.917969 L 7.585938 -8.917969 C 7.265625 -9.707031 6.917969 -10.386719 6.546875 -10.945312 L 5.640625 -10.613281 C 6.027344 -10.078125 6.347656 -9.507812 6.613281 -8.917969 Z "/>
</g>
<g id="glyph-0-1">
<path d="M 7.761719 -10.894531 L 7.761719 -8.746094 L 4.601562 -8.746094 L 4.601562 -7.8125 L 7.761719 -7.8125 L 7.761719 -5.320312 L 3.960938 -5.320312 L 3.960938 -4.386719 L 7.121094 -4.386719 C 6.105469 -2 5.28125 -0.535156 4.652344 0.0117188 C 4.601562 0.0390625 4.535156 0.078125 4.453125 0.105469 L 4.679688 0.945312 C 7.039062 0.71875 9.226562 0.414062 11.238281 0.0390625 C 11.425781 0.464844 11.601562 0.90625 11.785156 1.375 L 12.691406 0.972656 C 12.09375 -0.546875 11.386719 -1.988281 10.585938 -3.320312 L 9.667969 -3.011719 C 10.066406 -2.347656 10.464844 -1.613281 10.851562 -0.8125 C 9.199219 -0.492188 7.558594 -0.238281 5.917969 -0.0664062 C 6.558594 -0.90625 7.304688 -2.347656 8.160156 -4.386719 L 12.53125 -4.386719 L 12.53125 -5.320312 L 8.746094 -5.320312 L 8.746094 -7.8125 L 12.171875 -7.8125 L 12.171875 -8.746094 L 8.746094 -8.746094 L 8.746094 -10.894531 Z M 1.707031 -10.679688 L 1.027344 -10.027344 C 1.960938 -9.320312 2.679688 -8.652344 3.214844 -8.011719 L 3.894531 -8.707031 C 3.304688 -9.375 2.574219 -10.027344 1.707031 -10.679688 Z M 1.386719 -7.558594 L 0.707031 -6.90625 C 1.558594 -6.1875 2.226562 -5.519531 2.707031 -4.894531 L 3.398438 -5.574219 C 2.851562 -6.238281 2.1875 -6.90625 1.386719 -7.558594 Z M 2.921875 -3.867188 C 2.359375 -2.265625 1.679688 -0.707031 0.90625 0.8125 L 1.867188 1.226562 C 2.574219 -0.253906 3.214844 -1.839844 3.785156 -3.519531 Z "/>
</g>
<g id="glyph-0-2">
<path d="M 0.667969 -5.375 L 0.667969 -4.414062 L 12.652344 -4.414062 L 12.652344 -5.375 Z "/>
</g>
<g id="glyph-0-3">
<path d="M 3.332031 -8.121094 C 3.09375 -8.121094 2.90625 -8.039062 2.746094 -7.867188 C 2.585938 -7.71875 2.519531 -7.53125 2.519531 -7.292969 C 2.519531 -7.066406 2.585938 -6.878906 2.746094 -6.71875 C 2.90625 -6.558594 3.09375 -6.480469 3.332031 -6.480469 C 3.558594 -6.480469 3.761719 -6.558594 3.917969 -6.71875 C 4.078125 -6.878906 4.160156 -7.066406 4.160156 -7.292969 C 4.160156 -7.53125 4.078125 -7.71875 3.917969 -7.867188 C 3.761719 -8.039062 3.558594 -8.121094 3.332031 -8.121094 Z M 3.332031 -3.238281 C 3.09375 -3.238281 2.90625 -3.160156 2.746094 -2.988281 C 2.585938 -2.839844 2.519531 -2.652344 2.519531 -2.414062 C 2.519531 -2.1875 2.585938 -2 2.746094 -1.839844 C 2.90625 -1.679688 3.09375 -1.601562 3.332031 -1.601562 C 3.558594 -1.601562 3.761719 -1.679688 3.917969 -1.839844 C 4.078125 -2 4.160156 -2.1875 4.160156 -2.414062 C 4.160156 -2.652344 4.078125 -2.839844 3.917969 -2.988281 C 3.761719 -3.160156 3.558594 -3.238281 3.332031 -3.238281 Z "/>
</g>
<g id="glyph-0-4">
<path d="M 5.160156 -3.878906 L 7.625 -3.878906 L 7.625 -4.800781 L 5.160156 -4.800781 L 5.160156 -6.453125 L 7.894531 -6.453125 L 7.894531 -10.359375 L 4.226562 -10.359375 L 4.226562 1.347656 L 5.160156 1.347656 L 5.160156 -1.253906 L 7.640625 -1.253906 L 7.640625 -2.148438 L 5.160156 -2.148438 Z M 12.144531 -6.453125 L 12.144531 -10.359375 L 8.574219 -10.359375 L 8.574219 -9.464844 L 11.214844 -9.464844 L 11.214844 -7.347656 L 8.546875 -7.347656 L 8.546875 -6.453125 Z M 8.121094 -5.214844 L 8.121094 -4.320312 L 8.492188 -4.320312 C 8.679688 -3.121094 9.078125 -2.054688 9.691406 -1.105469 L 9.707031 -1.09375 C 9.066406 -0.398438 8.28125 0.160156 7.347656 0.601562 L 7.867188 1.414062 C 8.8125 0.972656 9.625 0.398438 10.292969 -0.320312 C 10.878906 0.359375 11.601562 0.921875 12.480469 1.375 L 12.933594 0.558594 C 12.1875 0.171875 11.507812 -0.359375 10.878906 -1.039062 C 11.546875 -1.960938 12.011719 -3.066406 12.304688 -4.375 L 12.304688 -5.214844 Z M 9.332031 -4.320312 L 11.441406 -4.320312 C 11.171875 -3.375 10.785156 -2.535156 10.28125 -1.800781 C 9.800781 -2.507812 9.480469 -3.347656 9.332031 -4.320312 Z M 5.160156 -7.332031 L 5.160156 -9.464844 L 6.988281 -9.464844 L 6.988281 -7.332031 Z M 1.828125 -6.039062 L 1.828125 1.359375 L 2.785156 1.359375 L 2.785156 -7.90625 C 3.148438 -8.734375 3.453125 -9.625 3.707031 -10.574219 L 2.8125 -10.988281 C 2.320312 -8.917969 1.535156 -7.09375 0.441406 -5.492188 L 0.761719 -4.464844 C 1.132812 -4.972656 1.492188 -5.492188 1.828125 -6.039062 Z "/>
</g>
<g id="glyph-0-5">
<path d="M 2.148438 -10.640625 L 1.480469 -10.011719 C 2.386719 -9.304688 3.09375 -8.640625 3.613281 -8 L 4.265625 -8.667969 C 3.691406 -9.320312 2.988281 -9.972656 2.148438 -10.640625 Z M 0.601562 -6.785156 L 0.601562 -5.867188 L 2.453125 -5.867188 L 2.453125 -0.585938 C 2.453125 -0.375 2.347656 -0.171875 2.160156 0.0117188 L 2.535156 0.867188 C 3.464844 0.253906 4.359375 -0.441406 5.199219 -1.226562 L 4.933594 -2.238281 C 4.386719 -1.71875 3.867188 -1.265625 3.386719 -0.867188 L 3.386719 -6.785156 Z M 5.332031 -5.226562 L 5.332031 -4.292969 L 6.066406 -4.292969 C 6.441406 -3.132812 7.121094 -2.09375 8.132812 -1.160156 C 7.132812 -0.453125 5.894531 0.121094 4.414062 0.558594 L 4.945312 1.375 C 6.507812 0.894531 7.828125 0.265625 8.894531 -0.535156 C 9.828125 0.1875 11 0.8125 12.386719 1.375 L 12.90625 0.546875 C 11.601562 0.0664062 10.492188 -0.480469 9.585938 -1.105469 C 10.558594 -2.011719 11.253906 -3.09375 11.679688 -4.347656 L 11.679688 -5.226562 Z M 6.972656 -4.292969 L 10.734375 -4.292969 C 10.304688 -3.304688 9.667969 -2.453125 8.8125 -1.707031 C 7.933594 -2.464844 7.320312 -3.332031 6.972656 -4.292969 Z M 6.359375 -10.375 L 6.359375 -8.894531 C 6.359375 -7.839844 5.773438 -7.027344 4.613281 -6.453125 L 5.253906 -5.71875 C 6.613281 -6.492188 7.304688 -7.585938 7.304688 -9 L 7.304688 -9.464844 L 9.894531 -9.464844 L 9.894531 -7.292969 C 9.894531 -6.507812 10.292969 -6.105469 11.121094 -6.105469 L 12.585938 -6.105469 L 12.585938 -6.988281 L 11.359375 -6.988281 C 11.011719 -6.988281 10.839844 -7.160156 10.839844 -7.492188 L 10.839844 -10.375 Z "/>
</g>
</g>
</defs>
<g fill="rgb(96.862745%, 85.098039%, 43.529412%)" fill-opacity="1">
<use xlink:href="#glyph-0-0" x="30" y="34.132812"/>
<use xlink:href="#glyph-0-1" x="43" y="34.132812"/>
<use xlink:href="#glyph-0-2" x="56" y="34.132812"/>
<use xlink:href="#glyph-0-3" x="69" y="34.132812"/>
<use xlink:href="#glyph-0-4" x="82" y="34.132812"/>
<use xlink:href="#glyph-0-5" x="95" y="34.132812"/>
<use xlink:href="#glyph-0-1" x="108" y="34.132812"/>
</g>
</svg>
