<?xml version="1.0" encoding="UTF-8"?>
<svg xmlns="http://www.w3.org/2000/svg" xmlns:xlink="http://www.w3.org/1999/xlink" width="1920" height="1080" viewBox="0 0 1920 1080">
<defs>
<g>
<g id="glyph-0-0">
<path d="M 0.910156 -4.285156 L 0.527344 -3.925781 C 1.011719 -3.265625 1.453125 -2.621094 1.84375 -2 C 1.484375 -1.136719 0.996094 -0.390625 0.359375 0.25 L 0.699219 0.652344 C 1.3125 0.046875 1.8125 -0.644531 2.183594 -1.4375 C 2.480469 -0.941406 2.738281 -0.449219 2.972656 0.03125 L 3.375 -0.367188 C 3.09375 -0.925781 2.777344 -1.476562 2.433594 -2.039062 C 2.792969 -2.988281 2.996094 -4.058594 3.046875 -5.257812 L 3.046875 -5.667969 L 0.582031 -5.667969 L 0.582031 -5.140625 L 2.527344 -5.140625 C 2.464844 -4.222656 2.316406 -3.382812 2.070312 -2.621094 C 1.710938 -3.171875 1.320312 -3.726562 0.910156 -4.285156 Z M 3.453125 -1.214844 L 3.453125 -0.699219 L 6.074219 -0.699219 L 6.074219 -1.214844 Z M 5.007812 -4.867188 L 4.644531 -4.644531 C 4.9375 -4.308594 5.171875 -4.003906 5.34375 -3.734375 L 5.699219 -3.988281 C 5.546875 -4.238281 5.3125 -4.535156 5.007812 -4.867188 Z M 4.292969 -2.550781 L 4.292969 -5.164062 L 6.246094 -5.164062 C 6.199219 -4.269531 6.144531 -3.75 6.074219 -3.609375 C 5.996094 -3.476562 5.871094 -3.40625 5.691406 -3.40625 C 5.539062 -3.40625 5.359375 -3.414062 5.15625 -3.421875 L 5.320312 -2.949219 L 5.691406 -2.949219 C 6.082031 -2.949219 6.347656 -3.070312 6.492188 -3.3125 C 6.632812 -3.554688 6.734375 -4.347656 6.804688 -5.683594 L 5.03125 -5.683594 C 5.125 -5.886719 5.203125 -6.105469 5.257812 -6.339844 L 4.707031 -6.417969 C 4.652344 -6.167969 4.574219 -5.917969 4.472656 -5.683594 L 3.757812 -5.683594 L 3.757812 -2.039062 L 6.742188 -2.039062 C 6.742188 -0.855469 6.679688 -0.179688 6.554688 0.0078125 C 6.441406 0.164062 6.253906 0.25 5.988281 0.25 C 5.753906 0.25 5.460938 0.242188 5.109375 0.234375 L 5.273438 0.753906 L 5.980469 0.753906 C 6.441406 0.753906 6.765625 0.621094 6.960938 0.375 C 7.164062 0.101562 7.273438 -0.871094 7.28125 -2.550781 Z "/>
</g>
<g id="glyph-0-1">
<path d="M 1.398438 -5.910156 L 1.398438 -2.378906 L 6.378906 -2.378906 L 6.378906 -5.910156 Z M 5.824219 -2.917969 L 1.953125 -2.917969 L 1.953125 -5.367188 L 5.824219 -5.367188 Z M 5.304688 -1.96875 L 4.851562 -1.679688 C 5.683594 -0.769531 6.339844 0.0625 6.804688 0.816406 L 7.289062 0.472656 C 6.828125 -0.21875 6.167969 -1.035156 5.304688 -1.96875 Z M 2.464844 -1.960938 C 1.929688 -1.019531 1.285156 -0.210938 0.527344 0.464844 L 1.027344 0.816406 C 1.773438 0.101562 2.417969 -0.738281 2.964844 -1.71875 Z "/>
</g>
<g id="glyph-1-0">
<path d="M 1.472656 -3.15625 C 1.472656 -3.03125 1.429688 -2.925781 1.34375 -2.847656 C 1.253906 -2.765625 1.15625 -2.726562 1.042969 -2.726562 C 0.921875 -2.726562 0.824219 -2.769531 0.746094 -2.855469 C 0.667969 -2.941406 0.625 -3.039062 0.625 -3.152344 C 0.625 -3.269531 0.667969 -3.367188 0.75 -3.449219 C 0.828125 -3.53125 0.929688 -3.574219 1.042969 -3.574219 C 1.15625 -3.574219 1.253906 -3.535156 1.34375 -3.453125 C 1.429688 -3.375 1.472656 -3.273438 1.472656 -3.15625 Z M 1.03125 0.0664062 C 0.925781 0.0664062 0.832031 0.0234375 0.75 -0.0625 C 0.667969 -0.144531 0.625 -0.246094 0.625 -0.363281 C 0.625 -0.476562 0.667969 -0.578125 0.75 -0.664062 C 0.828125 -0.746094 0.929688 -0.789062 1.046875 -0.789062 C 1.167969 -0.789062 1.269531 -0.75 1.359375 -0.667969 C 1.449219 -0.585938 1.492188 -0.484375 1.492188 -0.367188 C 1.492188 -0.257812 1.449219 -0.15625 1.367188 -0.0664062 C 1.285156 0.0195312 1.171875 0.0664062 1.03125 0.0664062 Z "/>
</g>
<g id="glyph-1-1">
<rect x="0" y="0" width="0" height="0" mask="url(#mask-0)"/>
</g>
<g id="glyph-1-2">
<path d="M 0.605469 -0.660156 C 0.742188 -0.660156 0.925781 -0.589844 1.15625 -0.445312 C 1.386719 -0.300781 1.578125 -0.226562 1.738281 -0.226562 C 2.09375 -0.226562 2.355469 -0.347656 2.527344 -0.585938 C 2.699219 -0.824219 2.789062 -1.085938 2.789062 -1.367188 C 2.789062 -1.636719 2.71875 -1.875 2.578125 -2.082031 C 2.34375 -2.429688 1.945312 -2.601562 1.386719 -2.601562 C 1.351562 -2.601562 1.320312 -2.601562 1.292969 -2.597656 C 1.261719 -2.597656 1.226562 -2.59375 1.183594 -2.589844 L 1.175781 -2.6875 C 1.582031 -2.835938 1.902344 -3.003906 2.132812 -3.195312 C 2.367188 -3.382812 2.484375 -3.632812 2.484375 -3.945312 C 2.484375 -4.222656 2.390625 -4.433594 2.207031 -4.574219 C 2.023438 -4.71875 1.816406 -4.792969 1.578125 -4.792969 C 1.300781 -4.792969 1.054688 -4.691406 0.84375 -4.484375 C 0.726562 -4.375 0.601562 -4.203125 0.46875 -3.96875 L 0.347656 -3.996094 C 0.449219 -4.378906 0.640625 -4.6875 0.914062 -4.917969 C 1.191406 -5.148438 1.511719 -5.261719 1.871094 -5.261719 C 2.257812 -5.261719 2.558594 -5.15625 2.769531 -4.945312 C 2.980469 -4.730469 3.085938 -4.484375 3.085938 -4.207031 C 3.085938 -3.960938 3 -3.738281 2.824219 -3.53125 C 2.726562 -3.414062 2.574219 -3.285156 2.367188 -3.140625 C 2.609375 -3.035156 2.804688 -2.914062 2.949219 -2.777344 C 3.226562 -2.511719 3.363281 -2.171875 3.363281 -1.765625 C 3.363281 -1.285156 3.175781 -0.859375 2.796875 -0.492188 C 2.417969 -0.125 1.878906 0.0585938 1.179688 0.0585938 C 0.871094 0.0585938 0.652344 0.0117188 0.527344 -0.0820312 C 0.402344 -0.175781 0.339844 -0.273438 0.339844 -0.378906 C 0.339844 -0.445312 0.359375 -0.507812 0.402344 -0.570312 C 0.441406 -0.628906 0.511719 -0.660156 0.605469 -0.660156 Z "/>
</g>
<g id="glyph-1-3">
<path d="M 0.582031 -0.695312 C 0.726562 -0.695312 0.914062 -0.613281 1.148438 -0.449219 C 1.382812 -0.285156 1.5625 -0.203125 1.691406 -0.203125 C 1.980469 -0.203125 2.234375 -0.332031 2.453125 -0.589844 C 2.671875 -0.847656 2.78125 -1.164062 2.78125 -1.539062 C 2.78125 -2.195312 2.429688 -2.664062 1.730469 -2.953125 C 1.34375 -3.113281 0.984375 -3.195312 0.648438 -3.195312 C 0.59375 -3.195312 0.558594 -3.195312 0.546875 -3.199219 C 0.53125 -3.203125 0.515625 -3.214844 0.492188 -3.238281 C 0.5 -3.257812 0.503906 -3.277344 0.507812 -3.289062 C 0.511719 -3.304688 0.515625 -3.316406 0.519531 -3.332031 L 1.347656 -5.144531 L 2.976562 -5.144531 C 3.058594 -5.144531 3.121094 -5.160156 3.164062 -5.1875 C 3.210938 -5.214844 3.265625 -5.265625 3.339844 -5.34375 L 3.398438 -5.289062 L 3.101562 -4.585938 C 3.09375 -4.5625 3.066406 -4.550781 3.019531 -4.542969 C 2.972656 -4.539062 2.925781 -4.535156 2.871094 -4.535156 L 1.402344 -4.535156 L 1.078125 -3.871094 C 1.492188 -3.800781 1.796875 -3.730469 1.988281 -3.667969 C 2.304688 -3.5625 2.570312 -3.40625 2.785156 -3.199219 C 2.964844 -3.019531 3.105469 -2.816406 3.199219 -2.59375 C 3.292969 -2.367188 3.339844 -2.128906 3.339844 -1.878906 C 3.339844 -1.320312 3.136719 -0.851562 2.738281 -0.476562 C 2.339844 -0.101562 1.835938 0.0820312 1.226562 0.0820312 C 0.976562 0.0820312 0.777344 0.0585938 0.625 0.0117188 C 0.371094 -0.0664062 0.246094 -0.207031 0.246094 -0.410156 C 0.246094 -0.484375 0.273438 -0.550781 0.328125 -0.609375 C 0.382812 -0.667969 0.46875 -0.695312 0.582031 -0.695312 Z "/>
</g>
<g id="glyph-1-4">
<path d="M 0.304688 -1.996094 L 2.214844 -1.996094 L 2.214844 -1.511719 L 0.304688 -1.511719 Z "/>
</g>
<g id="glyph-1-5">
<path d="M 2.300781 -5.21875 C 2.3125 -5.207031 2.316406 -5.195312 2.320312 -5.1875 C 2.320312 -5.183594 2.320312 -5.167969 2.320312 -5.144531 L 2.320312 -0.574219 C 2.320312 -0.378906 2.371094 -0.253906 2.476562 -0.203125 C 2.578125 -0.148438 2.773438 -0.117188 3.058594 -0.105469 L 3.058594 0 L 0.914062 0 L 0.914062 -0.113281 C 1.222656 -0.128906 1.421875 -0.171875 1.515625 -0.238281 C 1.609375 -0.308594 1.65625 -0.457031 1.65625 -0.683594 L 1.65625 -4.199219 C 1.65625 -4.320312 1.640625 -4.414062 1.609375 -4.476562 C 1.578125 -4.539062 1.515625 -4.570312 1.414062 -4.570312 C 1.347656 -4.570312 1.261719 -4.554688 1.15625 -4.515625 C 1.050781 -4.480469 0.953125 -4.441406 0.863281 -4.402344 L 0.863281 -4.507812 L 2.253906 -5.21875 Z "/>
</g>
<g id="glyph-1-6">
<path d="M 0.230469 -0.0859375 C 1.15625 -1.050781 1.789062 -1.753906 2.117188 -2.207031 C 2.449219 -2.65625 2.617188 -3.097656 2.617188 -3.523438 C 2.617188 -3.898438 2.515625 -4.183594 2.3125 -4.378906 C 2.109375 -4.574219 1.867188 -4.675781 1.585938 -4.675781 C 1.238281 -4.675781 0.960938 -4.546875 0.746094 -4.296875 C 0.625 -4.15625 0.511719 -3.941406 0.402344 -3.652344 L 0.238281 -3.6875 C 0.367188 -4.269531 0.582031 -4.675781 0.882812 -4.902344 C 1.183594 -5.128906 1.511719 -5.242188 1.855469 -5.242188 C 2.285156 -5.242188 2.632812 -5.105469 2.894531 -4.835938 C 3.160156 -4.566406 3.292969 -4.238281 3.292969 -3.847656 C 3.292969 -3.433594 3.148438 -3.03125 2.863281 -2.648438 C 2.578125 -2.261719 1.957031 -1.578125 1 -0.59375 L 2.742188 -0.59375 C 2.984375 -0.59375 3.15625 -0.621094 3.253906 -0.679688 C 3.351562 -0.738281 3.464844 -0.878906 3.589844 -1.105469 L 3.6875 -1.058594 L 3.265625 0 L 0.230469 0 Z "/>
</g>
<g id="glyph-1-7">
<path d="M 4.160156 -1.445312 L 4.160156 -0.914062 L 0.230469 -0.914062 L 0.230469 -1.445312 Z M 4.160156 -3.015625 L 4.160156 -2.484375 L 0.230469 -2.484375 L 0.230469 -3.015625 Z "/>
</g>
</g>
<image id="source-26" x="0" y="0" width="0" height="0"/>
<mask id="mask-0">
<use xlink:href="#source-26"/>
</mask>
</defs>
<g fill="rgb(100%, 100%, 100%)" fill-opacity="1">
<use xlink:href="#glyph-0-0" x="30" y="28.244141"/>
</g>
<g fill="rgb(100%, 100%, 100%)" fill-opacity="1">
<use xlink:href="#glyph-1-0" x="38" y="27.870117"/>
<use xlink:href="#glyph-1-1" x="40" y="27.870117"/>
<use xlink:href="#glyph-1-2" x="42" y="27.870117"/>
<use xlink:href="#glyph-1-3" x="46" y="27.870117"/>
<use xlink:href="#glyph-1-1" x="50" y="27.870117"/>
<use xlink:href="#glyph-1-4" x="52" y="27.870117"/>
<use xlink:href="#glyph-1-1" x="55" y="27.870117"/>
<use xlink:href="#glyph-1-5" x="57" y="27.870117"/>
<use xlink:href="#glyph-1-6" x="61" y="27.870117"/>
<use xlink:href="#glyph-1-1" x="65" y="27.870117"/>
<use xlink:href="#glyph-1-7" x="67" y="27.870117"/>
<use xlink:href="#glyph-1-1" x="71" y="27.870117"/>
<use xlink:href="#glyph-1-6" x="73" y="27.870117"/>
<use xlink:href="#glyph-1-2" x="77" y="27.870117"/>
</g>
<g fill="rgb(100%, 100%, 100%)" fill-opacity="1">
<use xlink:href="#glyph-0-1" x="81" y="28.244141"/>
</g>
</svg>
